<?xml version="1.0" encoding="UTF-8" standalone="no"?>
<svg xmlns:dc="http://purl.org/dc/elements/1.1/" xmlns:cc="http://creativecommons.org/ns#" xmlns:rdf="http://www.w3.org/1999/02/22-rdf-syntax-ns#" xmlns:svg="http://www.w3.org/2000/svg" xmlns="http://www.w3.org/2000/svg" viewBox="0 0 32 32" height="32" width="32" xml:space="preserve" id="svg2">
  <metadata id="metadata8"></metadata>
  <defs id="defs6">
    <clipPath id="clipPath18" clipPathUnits="userSpaceOnUse">
      <path id="path16" d="M 0,24 H 24 V 0 H 0 Z"></path>
    </clipPath>
  </defs>
  <g transform="matrix(1.3333333,0,0,-1.3333333,0,32)" id="g10">
    <g id="g12">
      <g clip-path="url(#clipPath18)" id="g14">
        <g transform="translate(10.7329,12.127)" id="g20">
          <path id="path22" style="fill:#ffffff;fill-opacity:1;fill-rule:evenodd;stroke:none" d="m 0,0 c -0.399,0 -0.714,-0.35 -0.714,-0.777 0,-0.427 0.322,-0.777 0.714,-0.777 0.399,0 0.714,0.35 0.714,0.777 C 0.721,-0.35 0.399,0 0,0 M 2.555,0 C 2.156,0 1.841,-0.35 1.841,-0.777 c 0,-0.427 0.322,-0.777 0.714,-0.777 0.399,0 0.714,0.35 0.714,0.777 C 3.269,-0.35 2.954,0 2.555,0 m 0.7,-3.269 -0.462,0.567 C 3.71,-2.443 4.06,-1.869 4.06,-1.869 3.773,-2.058 3.5,-2.191 3.255,-2.282 2.905,-2.429 2.569,-2.527 2.24,-2.583 1.568,-2.709 0.952,-2.674 0.427,-2.576 c -0.399,0.077 -0.742,0.189 -1.029,0.301 -0.161,0.063 -0.336,0.14 -0.511,0.238 l -0.028,0.016 -0.007,0.003 -0.028,0.016 -0.028,0.022 -0.196,0.118 c 0,0 0.336,-0.56 1.225,-0.826 l -0.469,-0.581 c -1.547,0.049 -2.135,1.064 -2.135,1.064 0,2.254 1.008,4.081 1.008,4.081 1.008,0.756 1.967,0.735 1.967,0.735 L 0.266,2.527 C -0.994,2.163 -1.575,1.61 -1.575,1.61 l 0.413,0.203 c 0.749,0.329 1.344,0.42 1.589,0.441 L 0.546,2.268 C 0.973,2.324 1.456,2.338 1.96,2.282 2.625,2.205 3.339,2.009 4.067,1.61 c 0,0 -0.553,0.525 -1.743,0.889 l 0.098,0.112 c 0,0 0.959,0.021 1.967,-0.735 0,0 1.008,-1.827 1.008,-4.081 0,0 -0.573,-0.977 -2.142,-1.064 m 1.26,-3.206 -0.371,1.295 0.897,-0.833 0.846,-0.784 1.505,-1.33 V 4.431 c 0,0.798 -0.643,1.442 -1.434,1.442 h -9.381 c -0.791,0 -1.435,-0.644 -1.435,-1.442 v -9.464 c 0,-0.798 0.644,-1.442 1.435,-1.442 z M 1.267,11.873 c -6.626,0 -12,-5.372 -12,-12 0,-6.627 5.374,-12 12,-12 6.627,0 12,5.373 12,12 0,6.628 -5.373,12 -12,12"></path>
        </g>
      </g>
    </g>
  </g>
</svg>
