<?xml version="1.0" encoding="UTF-8" standalone="no"?>
<svg xmlns:dc="http://purl.org/dc/elements/1.1/" xmlns:cc="http://creativecommons.org/ns#" xmlns:rdf="http://www.w3.org/1999/02/22-rdf-syntax-ns#" xmlns:svg="http://www.w3.org/2000/svg" xmlns="http://www.w3.org/2000/svg" viewBox="0 0 66.202667 66.202667" height="66.202667" width="66.202667" xml:space="preserve" id="svg2">
  <metadata id="metadata8"></metadata>
  <defs id="defs6">
    <clipPath id="clipPath18" clipPathUnits="userSpaceOnUse">
      <path id="path16" d="M 0,49.652 H 49.652 V 0 H 0 Z"></path>
    </clipPath>
  </defs>
  <g transform="matrix(1.3333333,0,0,-1.3333333,0,66.202667)" id="g10">
    <g id="g12">
      <g clip-path="url(#clipPath18)" id="g14">
        <g transform="translate(25.7422,26.3239)" id="g20">
          <path id="path22" style="fill:#ffffff;fill-opacity:1;fill-rule:nonzero;stroke:none" d="M 0,0 H -0.025 C -0.017,0.014 -0.005,0.027 0,0.041 Z M 3.607,2.03 C 1.482,2.03 0.534,0.862 0.003,0.042 v 1.704 h -4.002 c 0.052,-1.128 0,-12.041 0,-12.041 h 4.002 v 6.727 c 0,0.359 0.023,0.72 0.131,0.977 0.29,0.72 0.948,1.465 2.054,1.465 1.448,0 2.027,-1.104 2.027,-2.724 v -6.442 h 4.002 10e-4 v 6.905 C 8.216,0.309 6.241,2.03 3.607,2.03"></path>
        </g>
        <path id="path24" style="fill:#ffffff;fill-opacity:1;fill-rule:nonzero;stroke:none" d="m 15.523,28.07 h 4.002 V 16.029 h -4.002 z"></path>
        <g transform="translate(37.9912,13.5973)" id="g26">
          <path id="path28" style="fill:#ffffff;fill-opacity:1;fill-rule:nonzero;stroke:none" d="M 0,0 C 0,-1.057 -0.876,-1.91 -1.959,-1.91 H -24.54 c -1.08,0 -1.957,0.853 -1.957,1.91 v 22.844 c 0,1.055 0.877,1.91 1.957,1.91 H -1.959 C -0.877,24.754 0,23.897 0,22.844 Z m -13.165,36.055 c -13.689,0 -24.826,-11.138 -24.826,-24.826 0,-13.688 11.137,-24.827 24.826,-24.827 13.687,0 24.826,11.139 24.826,24.827 0,13.688 -11.137,24.826 -24.826,24.826"></path>
        </g>
        <g transform="translate(17.5508,33.8752)" id="g30">
          <path id="path32" style="fill:#ffffff;fill-opacity:1;fill-rule:nonzero;stroke:none" d="m 0,0 c -1.368,0 -2.264,-0.898 -2.264,-2.08 0,-1.155 0.869,-2.08 2.211,-2.08 h 0.026 c 1.396,0 2.265,0.925 2.265,2.08 C 2.211,-0.899 1.37,0 0,0"></path>
        </g>
      </g>
    </g>
  </g>
</svg>
