<?xml version="1.0" encoding="UTF-8" standalone="no"?>
<svg xmlns:dc="http://purl.org/dc/elements/1.1/" xmlns:cc="http://creativecommons.org/ns#" xmlns:rdf="http://www.w3.org/1999/02/22-rdf-syntax-ns#" xmlns:svg="http://www.w3.org/2000/svg" xmlns="http://www.w3.org/2000/svg" viewBox="0 0 31.877333 32" height="32" width="31.877333" xml:space="preserve" id="svg2">
  <metadata id="metadata8"></metadata>
  <defs id="defs6">
    <clipPath id="clipPath18" clipPathUnits="userSpaceOnUse">
      <path id="path16" d="M 0,24 H 23.908 V 0 H 0 Z"></path>
    </clipPath>
  </defs>
  <g transform="matrix(1.3333333,0,0,-1.3333333,0,32)" id="g10">
    <g id="g12">
      <g clip-path="url(#clipPath18)" id="g14">
        <g transform="translate(14.8152,12.8071)" id="g20">
          <path id="path22" style="fill:#ffffff;fill-opacity:1;fill-rule:nonzero;stroke:none" d="M 0,0 C 1.159,0 2.1,0.942 2.1,2.101 2.1,3.259 1.16,4.203 0,4.203 -1.16,4.203 -2.102,3.26 -2.102,2.101 -2.101,0.942 -1.159,0 0,0 m 0,-0.682 c -1.533,0 -2.781,1.249 -2.781,2.782 0,1.534 1.248,2.782 2.781,2.782 C 1.534,4.882 2.781,3.634 2.781,2.1 2.781,0.567 1.534,-0.682 0,-0.682 m -7.484,-5.602 -1.544,0.649 c 0.38,-0.858 1.236,-1.461 2.249,-1.457 1.346,0.011 2.422,1.11 2.41,2.455 -0.012,1.329 -1.104,2.41 -2.432,2.41 -0.287,-0.001 -0.57,-0.05 -0.86,-0.16 l 1.542,-0.648 c 0.898,-0.379 1.319,-1.411 0.941,-2.308 -0.376,-0.896 -1.409,-1.318 -2.306,-0.941 m 16.577,5.477 c 0,-6.627 -5.373,-12 -12,-12 -5.782,0 -10.608,4.091 -11.744,9.537 l 4.764,-2.003 c 0.285,-1.441 1.56,-2.547 3.115,-2.534 1.723,0.016 3.105,1.414 3.116,3.129 l 0.007,0.003 3.602,2.684 c 2.304,-0.024 4.14,1.833 4.14,4.091 0,2.26 -1.834,4.093 -4.093,4.093 -2.234,0 -4.048,-1.791 -4.09,-4.015 l -2.64,-3.693 c -0.668,0.014 -1.269,-0.169 -1.791,-0.51 l -6.294,2.646 c 0.708,5.953 5.765,10.572 11.908,10.572 6.627,0 12,-5.373 12,-12"></path>
        </g>
      </g>
    </g>
  </g>
</svg>
