<?xml version="1.0" encoding="UTF-8" standalone="no"?>
<svg xmlns:dc="http://purl.org/dc/elements/1.1/" xmlns:cc="http://creativecommons.org/ns#" xmlns:rdf="http://www.w3.org/1999/02/22-rdf-syntax-ns#" xmlns:svg="http://www.w3.org/2000/svg" xmlns="http://www.w3.org/2000/svg" viewBox="0 0 1359.0267 769.31598" height="769.31598" width="1359.0267" xml:space="preserve" id="svg2">
  <metadata id="metadata8"></metadata>
  <defs id="defs6">
    <clipPath id="clipPath22" clipPathUnits="userSpaceOnUse">
      <path id="path20" d="M 0,576.987 H 1019.274 V 0 H 0 Z"></path>
    </clipPath>
  </defs>
  <g transform="matrix(1.3333333,0,0,-1.3333333,0,769.316)" id="g10">
    <g transform="translate(497.5471,571.9876)" id="g12">
      <path id="path14" style="fill:#2193c7;fill-opacity:1;fill-rule:nonzero;stroke:none" d="M 0,0 -492.547,-566.988 H 24.181 L 516.728,0 Z"></path>
    </g>
    <g id="g16">
      <g clip-path="url(#clipPath22)" id="g18">
        <g transform="translate(5.0002,372.9798)" id="g24">
          <path id="path26" style="fill:#7ac943;fill-opacity:1;fill-rule:nonzero;stroke:none" d="M 0,0 V -367.98 L 492.547,199.008 H 199.264 C 89.213,199.008 0,109.909 0,0"></path>
        </g>
        <g transform="translate(521.7277,4.9998)" id="g28">
          <path id="path30" style="fill:#563795;fill-opacity:1;fill-rule:nonzero;stroke:none" d="M 0,0 H 294.5 C 403.878,0 492.547,88.555 492.547,197.792 V 566.988 Z"></path>
        </g>
        <g transform="translate(233.9138,254.8504)" id="g32">
          <path id="path34" style="fill:#ffffff;fill-opacity:1;fill-rule:nonzero;stroke:none" d="m 0,0 c 0,-18.351 -1.276,-30.78 -3.821,-37.287 -2.547,-6.51 -7.145,-11.872 -13.79,-16.085 -6.647,-4.218 -14.568,-6.323 -23.76,-6.323 -8.698,0 -16.12,1.89 -22.27,5.671 -6.15,3.781 -10.561,8.835 -13.232,15.158 -2.095,4.955 -3.339,12.749 -3.791,23.185 -0.123,2.882 -0.216,5.874 -0.216,9.172 v 177.043 h -52.367 V 7.309 c 0,-32.636 3.168,-55.808 9.505,-69.517 0.362,-0.783 0.876,-1.483 1.266,-2.252 6.426,-12.681 16.441,-23.395 30.322,-31.993 14.722,-9.121 32.022,-13.682 51.9,-13.682 15.156,0 28.449,2.392 39.881,7.167 11.429,4.776 21.525,12.127 30.284,22.055 8.758,9.926 14.691,20.224 17.797,30.897 3.104,10.67 4.659,29.778 4.659,57.325 V 33.278 L 0,33.278 Z"></path>
        </g>
        <g transform="translate(401.4611,245.2225)" id="g36">
          <path id="path38" style="fill:#ffffff;fill-opacity:1;fill-rule:nonzero;stroke:none" d="m 0,0 -104.907,161.133 -12.389,19.029 H -167.35 V 88.283 51.507 h 52.179 V 85.985 L 1.983,-93.62 H 52.181 V 46.402 H 0 Z"></path>
        </g>
        <g transform="translate(516.4435,377.4529)" id="g40">
          <path id="path42" style="fill:#ffffff;fill-opacity:1;fill-rule:nonzero;stroke:none" d="m 0,0 c 8.465,2.539 17.508,3.822 27.138,3.822 25.123,0 45.133,-10.401 63.986,-27.081 15.197,-13.443 22.471,-38.074 22.471,-38.074 0,0 1.77,21.46 9.941,37.307 6.474,12.557 15.74,24.727 15.74,24.727 -2.673,3.149 -8.541,9.048 -11.533,12.055 C 99.833,40.795 66.484,54.818 27.698,54.818 18.23,54.818 9.001,53.929 0,52.175 -15.348,49.183 -30.018,43.651 -44.004,35.555 -66.196,22.714 -83.172,5.04 -96.313,-16.652 c -9.498,-15.68 -18.565,-41.47 -18.565,-60.23 l 52.672,-0.032 c 3.373,26.515 14.142,42.878 25.356,54.308 C -26.126,-11.677 -13.838,-4.15 0,0"></path>
        </g>
        <g transform="translate(633.3488,277.1551)" id="g44">
          <path id="path46" style="fill:#ffffff;fill-opacity:1;fill-rule:nonzero;stroke:none" d="M 0,0 C 0,0 0.315,-27.253 -25.595,-55.199 -42.558,-73.492 -64.087,-82 -88.834,-82 c -9.214,0 -18.784,1.818 -28.071,4.909 -12.78,4.254 -25.004,10.991 -34.865,19.388 -11.249,9.578 -21.084,29.195 -21.084,29.195 l 0.147,-77.924 c 0,0 21.643,-16.6 55.802,-23.263 8.619,-1.682 17.998,-2.759 28.071,-2.744 39.283,0.062 68.036,12.08 100.23,41.504 38.919,35.574 40.992,91.074 40.992,91.074 z"></path>
        </g>
        <g transform="translate(918.2346,290.4481)" id="g48">
          <path id="path50" style="fill:#ffffff;fill-opacity:1;fill-rule:nonzero;stroke:none" d="m 0,0 h -71.823 -66.082 v -48.949 h 24.124 55.265 c -7.588,-16.131 -17.569,-27.982 -29.944,-35.549 -12.374,-7.568 -27.579,-11.354 -45.613,-11.354 -6.782,0 -12.984,0.427 -18.798,1.297 -17.963,2.692 -32.107,9.758 -47.275,22.658 -18.875,16.051 -28.13,42.342 -28.13,42.342 0,0 -0.593,-19.951 -8.91,-36.126 -10.108,-19.659 -7.356,-14.3 -15.11,-26.072 0,0 17.517,-23.324 40.126,-35.459 7.301,-3.92 14.927,-7.182 22.828,-9.89 16.403,-5.619 34.099,-8.63 53.299,-8.63 26.587,0 49.759,5.647 69.514,16.938 19.753,11.288 35.841,27.668 48.265,49.135 12.423,21.466 18.637,44.173 18.637,68.119 z"></path>
        </g>
        <g transform="translate(633.7482,287.3494)" id="g52">
          <path id="path54" style="fill:#ffffff;fill-opacity:1;fill-rule:nonzero;stroke:none" d="m 0,0 52.188,0.144 c 0,0 -3.064,21.493 11.48,46.851 25.048,43.669 64.93,46.93 83.558,46.93 30.96,0 58.066,-12.282 81.322,-36.85 l 36.744,36.292 c -16.773,18.116 -33.918,30.896 -51.436,38.341 -20.749,8.809 -43.048,13.199 -66.904,13.214 C 38.766,144.991 9.878,60.979 3.868,37.002 -1.824,14.294 0,0 0,0"></path>
        </g>
        <g transform="translate(1019.2746,576.9876)" id="g56">
          <path id="path58" style="fill:#ffffff;fill-opacity:1;fill-rule:nonzero;stroke:none" d="m 0,0 h -5 -516.728 -293.283 c -27.572,0 -54.322,-5.395 -79.508,-16.033 -24.324,-10.275 -46.168,-24.984 -64.926,-43.717 -18.758,-18.734 -33.486,-40.551 -43.775,-64.845 -10.653,-25.155 -16.054,-51.873 -16.054,-79.413 v -367.98 -5 h 5 516.727 294.5 c 27.408,0 53.999,5.363 79.034,15.938 24.18,10.214 45.894,24.835 64.539,43.457 18.647,18.622 33.287,40.308 43.514,64.458 C -5.37,-428.13 0,-401.571 0,-374.196 V -5 Z m -5,-5 v -369.196 c 0,-109.237 -88.669,-197.792 -198.047,-197.792 h -294.5 -516.727 v 367.98 c 0,109.909 89.213,199.008 199.263,199.008 l 293.283,0 H -5"></path>
        </g>
      </g>
    </g>
  </g>
</svg>
