<?xml version="1.0" encoding="UTF-8" standalone="no"?>
<svg xmlns:dc="http://purl.org/dc/elements/1.1/" xmlns:cc="http://creativecommons.org/ns#" xmlns:rdf="http://www.w3.org/1999/02/22-rdf-syntax-ns#" xmlns:svg="http://www.w3.org/2000/svg" xmlns="http://www.w3.org/2000/svg" viewBox="0 0 682.66669 682.66669" height="682.66669" width="682.66669" xml:space="preserve" id="svg2">
  <metadata id="metadata8"></metadata>
  <defs id="defs6">
    <clipPath id="clipPath22" clipPathUnits="userSpaceOnUse">
      <path id="path20" d="M 0,512 H 512 V 0 H 0 Z"></path>
    </clipPath>
  </defs>
  <g transform="matrix(1.3333333,0,0,-1.3333333,0,682.66667)" id="g10">
    <g transform="translate(224.1133,208.0391)" id="g12">
      <path id="path14" style="fill:#ffffff;fill-opacity:1;fill-rule:nonzero;stroke:none" d="M 0,0 83.273,47.961 0,95.922 Z"></path>
    </g>
    <g id="g16">
      <g clip-path="url(#clipPath22)" id="g18">
        <g transform="translate(415.9609,255.7383)" id="g24">
          <path id="path26" style="fill:#ffffff;fill-opacity:1;fill-rule:nonzero;stroke:none" d="m 0,0 c 0,0 0,-51.918 -6.586,-76.953 -3.691,-13.703 -14.496,-24.508 -28.199,-28.195 -25.035,-6.59 -125.176,-6.59 -125.176,-6.59 0,0 -99.879,0 -125.176,6.851 -13.703,3.688 -24.508,14.496 -28.199,28.199 -6.59,24.77 -6.59,76.95 -6.59,76.95 0,0 0,51.914 6.59,76.949 3.688,13.703 14.758,24.773 28.199,28.461 25.035,6.59 125.176,6.59 125.176,6.59 0,0 100.141,0 125.176,-6.852 13.703,-3.687 24.508,-14.496 28.199,-28.199 C 0.266,52.176 0,0 0,0 m -159.961,256.262 c -141.363,0 -256,-114.637 -256,-256 0,-141.364 114.637,-256 256,-256 141.363,0 256,114.636 256,256 0,141.363 -114.637,256 -256,256"></path>
        </g>
      </g>
    </g>
  </g>
</svg>
